<svg width="64" height="64" viewBox="0 0 64 64" fill="none" xmlns="http://www.w3.org/2000/svg">
<path d="M7.28584 29.1944C7.29851 28.0785 8.18514 27.2129 9.31383 27.2115C10.4678 27.2102 11.4361 28.1884 11.4094 29.328C11.3798 30.4955 10.4791 31.2998 9.21531 31.2845C8.00922 31.2706 7.27177 30.4718 7.28584 29.1944Z" fill="#D6AB0A"/>
<path d="M17.3539 29.3198C17.3539 30.6946 17.3539 30.721 16 30.7252C15.5398 30.7266 15.4891 30.9743 15.3765 31.2971C14.0227 35.2225 9.29259 36.8116 5.82911 34.5115C3.52107 32.9766 2.47822 30.1449 3.25367 27.5039C4.01223 24.9226 6.44271 23.0789 9.18281 23.0024C11.9018 22.9272 14.4435 24.6374 15.3329 27.1991C15.4962 27.6722 15.6707 27.8698 16.1998 27.8503C17.3524 27.8114 17.3524 27.8434 17.3524 28.9705V29.3198H17.3539ZM12.317 29.2878C12.3127 27.6527 11.0025 26.3587 9.35029 26.3587C7.69525 26.3587 6.37094 27.6681 6.37938 29.2892C6.38783 30.9005 7.73325 32.2336 9.35592 32.2377C10.9856 32.2405 12.3212 30.9103 12.317 29.2878Z" fill="#136034"/>
<path d="M21.5604 30.7419C20.5021 30.7419 19.441 30.7266 18.3812 30.7502C18.0083 30.7586 17.8929 30.6542 17.9098 30.2841C17.9393 29.6092 17.914 28.9315 17.921 28.2553C17.9225 28.1078 17.8563 27.8434 18.0829 27.8642C18.7992 27.9324 18.6303 27.4468 18.6571 27.0572C18.7035 26.4046 19.1314 26.1012 19.9687 26.1096C20.7836 26.1165 21.1875 26.431 21.2339 27.11C21.2593 27.4579 21.1031 27.8795 21.7448 27.8489C22.1389 27.8308 22.2613 27.7293 22.2782 27.3313C22.3134 26.4059 22.6877 26.0915 23.6109 26.1096C24.499 26.1263 24.7129 26.4894 24.9324 27.3174C25.1956 28.3123 25.1506 29.2947 25.19 30.2882C25.2069 30.6848 25.0802 30.8114 24.6777 30.8003C23.6405 30.7753 22.6033 30.792 21.5633 30.792C21.5604 30.7753 21.5604 30.7586 21.5604 30.7419Z" fill="#136034"/>
<path d="M17.2133 36.3635C17.2133 37.1247 17.2147 37.6841 17.2133 38.2448C17.2105 38.8265 16.8642 39.0074 16.3337 38.9935C15.8355 38.9809 15.5245 38.807 15.5273 38.2532C15.5329 36.4526 15.5329 34.652 15.5245 32.8514C15.5202 32.2976 15.8228 32.1194 16.3281 32.1153C16.8474 32.1097 17.2147 32.2586 17.2133 32.8556C17.2119 33.4135 17.2133 33.9729 17.2133 34.7285C17.9831 33.8616 18.6459 33.1255 19.2947 32.3783C19.6212 32.0012 19.9506 31.894 20.3854 32.2335C20.9455 32.6719 21.0201 32.978 20.5388 33.5054C20.0012 34.0954 19.4397 34.6631 18.8486 35.2016C18.5446 35.4799 18.5756 35.6358 18.8599 35.8974C19.4425 36.4428 19.9886 37.0273 20.5501 37.5964C20.961 38.0125 20.9498 38.3882 20.4839 38.7806C20.0322 39.1604 19.6606 39.1535 19.2807 38.6915C18.9696 38.3116 18.6319 37.9512 18.3026 37.5825C17.9803 37.2207 17.658 36.8603 17.2133 36.3635Z" fill="#136034"/>
<path d="M29.9749 36.4915C30.314 35.7568 30.6222 35.1334 30.891 34.4947C31.1345 33.9131 31.5258 33.8825 32.0282 34.1232C32.5222 34.3611 32.6347 34.684 32.3927 35.2002C31.5539 36.9952 30.7376 38.7986 29.9383 40.6118C29.7032 41.1461 29.3993 41.3298 28.842 41.0807C28.3043 40.8427 28.0947 40.4656 28.4395 39.9772C29.3007 38.7555 29.0193 37.6799 28.1495 36.6084C27.8132 36.1937 27.5993 35.6872 27.3023 35.2392C26.9519 34.7118 27.156 34.3848 27.6429 34.1051C28.1439 33.8171 28.4676 33.959 28.7364 34.4377C29.1108 35.1 29.5217 35.7401 29.9749 36.4915Z" fill="#136034"/>
<path d="M24.5538 39.127C23.2225 39.1187 22.2669 38.7304 21.8151 37.6172C21.4126 36.6293 21.4731 35.6441 22.2233 34.8008C22.9269 34.0077 24.1682 33.7252 25.211 34.0856C26.0963 34.3917 26.6817 35.3073 26.5325 36.1617C26.4368 36.7114 26.1441 37.0495 25.539 37.0481C24.9732 37.0453 24.406 37.0439 23.8403 37.0523C23.715 37.0551 23.5307 36.9785 23.4758 37.1553C23.4111 37.3556 23.5968 37.4391 23.7347 37.5129C24.2315 37.7828 24.7565 37.7105 25.242 37.5268C25.8204 37.3069 26.092 37.5644 26.2567 38.0472C26.4242 38.5468 26.1075 38.7944 25.698 38.935C25.273 39.0783 24.8254 39.1368 24.5538 39.127ZM23.3477 36.1951C23.7741 36.1951 24.1443 36.1979 24.5102 36.1937C24.7143 36.1923 24.8902 36.1367 24.8888 35.889C24.8888 35.6803 24.7734 35.5328 24.5707 35.4868C23.9909 35.3616 23.587 35.5606 23.3477 36.1951Z" fill="#136034"/>
<path d="M31.9998 31.6018C30.6108 31.6018 29.6467 30.6416 29.6608 29.2682C29.6749 27.9602 30.6755 26.9444 31.9688 26.9291C33.2734 26.9152 34.3627 27.9797 34.3712 29.2738C34.3824 30.6027 33.3635 31.6018 31.9998 31.6018Z" fill="#ED2C2D"/>
<path d="M44.1033 31.6046C42.734 31.6074 41.7742 30.6751 41.7671 29.342C41.7615 27.9672 42.7255 26.9528 44.0611 26.9305C45.3741 26.9083 46.4522 27.9575 46.4606 29.2655C46.4676 30.6208 45.4769 31.6018 44.1033 31.6046Z" fill="#136034"/>
<path d="M38.004 31.5962C36.6051 31.5934 35.6707 30.6542 35.6763 29.2571C35.6791 27.9574 36.6882 26.9444 37.9914 26.9305C39.3227 26.9166 40.3585 27.9407 40.3585 29.2794C40.3613 30.6625 39.4072 31.599 38.004 31.5962Z" fill="#D6AB0A"/>
<path d="M25.7448 29.3141C25.7448 28.9663 25.766 28.6184 25.7392 28.2719C25.7097 27.8837 25.8631 27.7737 26.2304 27.8656C26.8102 28.0075 27.0917 28.5001 27.1029 29.3475C27.1114 30.0043 26.9706 30.5414 26.2304 30.7363C25.8743 30.8295 25.7026 30.7655 25.7392 30.3564C25.7688 30.0099 25.7448 29.6606 25.7448 29.3141Z" fill="#136034"/>
<path d="M36.1425 39.6591H34.1132V33.0831H36.2324C36.8703 33.0831 37.4162 33.2147 37.87 33.478C38.3238 33.7392 38.6717 34.1149 38.9135 34.6051C39.1554 35.0931 39.2764 35.6775 39.2764 36.3582C39.2764 37.0432 39.1544 37.633 38.9103 38.1274C38.6663 38.6198 38.311 38.9987 37.8443 39.2641C37.3776 39.5274 36.8104 39.6591 36.1425 39.6591ZM34.9095 38.9527H36.0911C36.6349 38.9527 37.0855 38.8478 37.4429 38.638C37.8004 38.4282 38.0669 38.1296 38.2425 37.7421C38.418 37.3547 38.5058 36.8934 38.5058 36.3582C38.5058 35.8273 38.4191 35.3703 38.2457 34.9872C38.0723 34.6018 37.8133 34.3064 37.4686 34.1009C37.124 33.8933 36.6948 33.7895 36.181 33.7895H34.9095V38.9527ZM41.0067 39.6591V34.7271H41.7388V35.472H41.7901C41.8801 35.228 42.0427 35.03 42.2782 34.878C42.5137 34.726 42.7791 34.65 43.0745 34.65C43.1302 34.65 43.1997 34.6511 43.2832 34.6532C43.3667 34.6554 43.4299 34.6586 43.4727 34.6629V35.4335C43.447 35.4271 43.3881 35.4174 43.2961 35.4046C43.2062 35.3896 43.1109 35.3821 43.0103 35.3821C42.7706 35.3821 42.5565 35.4324 42.3681 35.533C42.1819 35.6315 42.0342 35.7685 41.925 35.944C41.818 36.1174 41.7645 36.3154 41.7645 36.538V39.6591H41.0067ZM44.8682 39.6591V34.7271H45.626V39.6591H44.8682ZM45.2536 33.9051C45.1058 33.9051 44.9785 33.8548 44.8715 33.7542C44.7666 33.6536 44.7141 33.5326 44.7141 33.3913C44.7141 33.25 44.7666 33.1291 44.8715 33.0285C44.9785 32.9279 45.1058 32.8776 45.2536 32.8776C45.4013 32.8776 45.5276 32.9279 45.6324 33.0285C45.7395 33.1291 45.793 33.25 45.793 33.3913C45.793 33.5326 45.7395 33.6536 45.6324 33.7542C45.5276 33.8548 45.4013 33.9051 45.2536 33.9051ZM51.5442 34.7271L49.7204 39.6591H48.9497L47.1259 34.7271H47.9479L49.3094 38.6572H49.3607L50.7222 34.7271H51.5442ZM54.9329 39.7618C54.4577 39.7618 54.0478 39.6569 53.7031 39.4471C53.3606 39.2352 53.0963 38.9398 52.91 38.5609C52.726 38.1799 52.6339 37.7368 52.6339 37.2316C52.6339 36.7264 52.726 36.2812 52.91 35.8958C53.0963 35.5084 53.3553 35.2066 53.6871 34.9904C54.021 34.772 54.4106 34.6629 54.8559 34.6629C55.1127 34.6629 55.3664 34.7057 55.6169 34.7913C55.8673 34.8769 56.0953 35.0161 56.3008 35.2087C56.5063 35.3992 56.67 35.6518 56.7921 35.9665C56.9141 36.2812 56.9751 36.6686 56.9751 37.1288V37.4499H53.1733V36.7949H56.2045C56.2045 36.5166 56.1488 36.2683 56.0375 36.05C55.9283 35.8316 55.7721 35.6593 55.5687 35.533C55.3675 35.4067 55.1299 35.3436 54.8559 35.3436C54.554 35.3436 54.2929 35.4185 54.0724 35.5683C53.8541 35.716 53.686 35.9087 53.5683 36.1463C53.4505 36.3839 53.3917 36.6386 53.3917 36.9105V37.3472C53.3917 37.7197 53.4559 38.0354 53.5843 38.2944C53.7149 38.5513 53.8958 38.7472 54.127 38.882C54.3582 39.0147 54.6268 39.0811 54.9329 39.0811C55.132 39.0811 55.3118 39.0533 55.4724 38.9976C55.6351 38.9398 55.7753 38.8542 55.893 38.7407C56.0107 38.6251 56.1017 38.4817 56.1659 38.3105L56.898 38.516C56.821 38.7643 56.6914 38.9826 56.5095 39.171C56.3275 39.3572 56.1028 39.5028 55.8352 39.6077C55.5676 39.7104 55.2669 39.7618 54.9329 39.7618ZM58.6251 39.6591V34.7271H59.3572V35.472H59.4086C59.4985 35.228 59.6612 35.03 59.8966 34.878C60.1321 34.726 60.3975 34.65 60.6929 34.65C60.7486 34.65 60.8182 34.6511 60.9017 34.6532C60.9851 34.6554 61.0483 34.6586 61.0911 34.6629V35.4335C61.0654 35.4271 61.0066 35.4174 60.9145 35.4046C60.8246 35.3896 60.7293 35.3821 60.6287 35.3821C60.389 35.3821 60.1749 35.4324 59.9865 35.533C59.8003 35.6315 59.6526 35.7685 59.5434 35.944C59.4364 36.1174 59.3829 36.3154 59.3829 36.538V39.6591H58.6251Z" fill="#D6AB0A"/>
<path d="M34.1132 39.6591H33.7941C33.7941 39.8353 33.937 39.9782 34.1132 39.9782V39.6591ZM34.1132 33.0831V32.7639C33.937 32.7639 33.7941 32.9068 33.7941 33.0831H34.1132ZM37.87 33.478L37.7098 33.7541L37.7108 33.7546L37.87 33.478ZM38.9135 34.6051L38.6274 34.7463L38.6276 34.7468L38.9135 34.6051ZM38.9103 38.1274L39.1963 38.2692L39.1965 38.2687L38.9103 38.1274ZM37.8443 39.2641L38.0011 39.5421L38.0021 39.5415L37.8443 39.2641ZM34.9095 38.9527H34.5904C34.5904 39.1289 34.7333 39.2718 34.9095 39.2718V38.9527ZM38.2457 34.9872L37.9546 35.1181L37.9549 35.1187L38.2457 34.9872ZM37.4686 34.1009L37.3039 34.3743L37.3052 34.375L37.4686 34.1009ZM34.9095 33.7895V33.4704C34.7333 33.4704 34.5904 33.6132 34.5904 33.7895H34.9095ZM36.1425 39.3399H34.1132V39.9782H36.1425V39.3399ZM34.4323 39.6591V33.0831H33.7941V39.6591H34.4323ZM34.1132 33.4022H36.2324V32.7639H34.1132V33.4022ZM36.2324 33.4022C36.8262 33.4022 37.3142 33.5245 37.7098 33.7541L38.0301 33.202C37.5182 32.905 36.9145 32.7639 36.2324 32.7639V33.4022ZM37.7108 33.7546C38.1073 33.9828 38.4122 34.3101 38.6274 34.7463L39.1997 34.4638C38.9312 33.9196 38.5403 33.4956 38.0292 33.2014L37.7108 33.7546ZM38.6276 34.7468C38.8429 35.1812 38.9572 35.7147 38.9572 36.3582H39.5955C39.5955 35.6403 39.468 35.0051 39.1995 34.4633L38.6276 34.7468ZM38.9572 36.3582C38.9572 37.0058 38.8419 37.545 38.6242 37.9862L39.1965 38.2687C39.4668 37.7209 39.5955 37.0806 39.5955 36.3582H38.9572ZM38.6244 37.9857C38.4079 38.4225 38.0965 38.7535 37.6865 38.9867L38.0021 39.5415C38.5254 39.2438 38.9247 38.8171 39.1963 38.2692L38.6244 37.9857ZM37.6875 38.9862C37.2791 39.2166 36.7688 39.3399 36.1425 39.3399V39.9782C36.852 39.9782 37.4762 39.8382 38.0011 39.5421L37.6875 38.9862ZM34.9095 39.2718H36.0911V38.6335H34.9095V39.2718ZM36.0911 39.2718C36.6744 39.2718 37.185 39.1594 37.6045 38.9132L37.2814 38.3627C36.9859 38.5362 36.5953 38.6335 36.0911 38.6335V39.2718ZM37.6045 38.9132C38.0204 38.6692 38.3312 38.3196 38.5331 37.8738L37.9518 37.6104C37.8027 37.9395 37.5805 38.1872 37.2814 38.3627L37.6045 38.9132ZM38.5331 37.8738C38.7316 37.4358 38.8249 36.9274 38.8249 36.3582H38.1866C38.1866 36.8593 38.1044 37.2736 37.9518 37.6104L38.5331 37.8738ZM38.8249 36.3582C38.8249 35.7935 38.7327 35.2894 38.5364 34.8556L37.9549 35.1187C38.1054 35.4512 38.1866 35.8612 38.1866 36.3582H38.8249ZM38.5367 34.8562C38.338 34.4146 38.036 34.0677 37.6321 33.8268L37.3052 34.375C37.5906 34.5452 37.8066 34.7891 37.9546 35.1181L38.5367 34.8562ZM37.6333 33.8276C37.227 33.5828 36.737 33.4704 36.181 33.4704V34.1086C36.6526 34.1086 37.021 34.2038 37.3039 34.3743L37.6333 33.8276ZM36.181 33.4704H34.9095V34.1086H36.181V33.4704ZM34.5904 33.7895V38.9527H35.2286V33.7895H34.5904ZM41.0067 39.6591H40.6876C40.6876 39.8353 40.8304 39.9782 41.0067 39.9782V39.6591ZM41.0067 34.7271V34.4079C40.8304 34.4079 40.6876 34.5508 40.6876 34.7271H41.0067ZM41.7388 34.7271H42.0579C42.0579 34.5508 41.915 34.4079 41.7388 34.4079V34.7271ZM41.7388 35.472H41.4196C41.4196 35.6483 41.5625 35.7911 41.7388 35.7911V35.472ZM41.7901 35.472V35.7911C41.9239 35.7911 42.0434 35.7078 42.0896 35.5823L41.7901 35.472ZM42.2782 34.878L42.1051 34.6099L42.1051 34.6099L42.2782 34.878ZM43.4727 34.6629H43.7918C43.7918 34.4989 43.6676 34.3616 43.5044 34.3453L43.4727 34.6629ZM43.4727 35.4335L43.3953 35.7431C43.4906 35.7669 43.5916 35.7455 43.6691 35.685C43.7465 35.6245 43.7918 35.5317 43.7918 35.4335H43.4727ZM43.2961 35.4046L43.2436 35.7195L43.252 35.7206L43.2961 35.4046ZM42.3681 35.533L42.5173 35.8151L42.5185 35.8145L42.3681 35.533ZM41.925 35.944L41.654 35.7755L41.6535 35.7764L41.925 35.944ZM41.7645 39.6591V39.9782C41.9407 39.9782 42.0836 39.8353 42.0836 39.6591H41.7645ZM41.3258 39.6591V34.7271H40.6876V39.6591H41.3258ZM41.0067 35.0462H41.7388V34.4079H41.0067V35.0462ZM41.4196 34.7271V35.472H42.0579V34.7271H41.4196ZM41.7388 35.7911H41.7901V35.1529H41.7388V35.7911ZM42.0896 35.5823C42.1537 35.4084 42.2691 35.2637 42.4513 35.1461L42.1051 34.6099C41.8164 34.7963 41.6064 35.0476 41.4907 35.3617L42.0896 35.5823ZM42.4513 35.1461C42.6323 35.0293 42.837 34.9691 43.0745 34.9691V34.3309C42.7212 34.3309 42.395 34.4227 42.1051 34.6099L42.4513 35.1461ZM43.0745 34.9691C43.1265 34.9691 43.1931 34.9701 43.2751 34.9722L43.2914 34.3342C43.2064 34.332 43.1339 34.3309 43.0745 34.3309V34.9691ZM43.2751 34.9722C43.3565 34.9743 43.4102 34.9773 43.4409 34.9804L43.5044 34.3453C43.4496 34.3398 43.3769 34.3364 43.2914 34.3342L43.2751 34.9722ZM43.1535 34.6629V35.4335H43.7918V34.6629H43.1535ZM43.5501 35.1239C43.5046 35.1125 43.4275 35.1007 43.3402 35.0885L43.252 35.7206C43.2967 35.7269 43.3317 35.7321 43.3577 35.7364C43.3865 35.7411 43.3963 35.7433 43.3953 35.7431L43.5501 35.1239ZM43.3485 35.0898C43.2396 35.0716 43.1267 35.063 43.0103 35.063V35.7012C43.0951 35.7012 43.1727 35.7075 43.2436 35.7194L43.3485 35.0898ZM43.0103 35.063C42.7246 35.063 42.4578 35.1233 42.2178 35.2515L42.5185 35.8145C42.6551 35.7415 42.8165 35.7012 43.0103 35.7012V35.063ZM42.2189 35.2509C41.9838 35.3752 41.7936 35.551 41.654 35.7755L42.196 36.1126C42.2747 35.986 42.38 35.8877 42.5173 35.8151L42.2189 35.2509ZM41.6535 35.7764C41.5125 36.0048 41.4453 36.2619 41.4453 36.538H42.0836C42.0836 36.3689 42.1235 36.23 42.1966 36.1116L41.6535 35.7764ZM41.4453 36.538V39.6591H42.0836V36.538H41.4453ZM41.7645 39.3399H41.0067V39.9782H41.7645V39.3399ZM44.8682 39.6591H44.5491C44.5491 39.8353 44.692 39.9782 44.8682 39.9782V39.6591ZM44.8682 34.7271V34.4079C44.692 34.4079 44.5491 34.5508 44.5491 34.7271H44.8682ZM45.626 34.7271H45.9451C45.9451 34.5508 45.8023 34.4079 45.626 34.4079V34.7271ZM45.626 39.6591V39.9782C45.8023 39.9782 45.9451 39.8353 45.9451 39.6591H45.626ZM44.8715 33.7542L44.6505 33.9845L44.6529 33.9867L44.8715 33.7542ZM44.8715 33.0285L44.6529 32.796L44.6505 32.7982L44.8715 33.0285ZM45.6324 33.0285L45.4115 33.2588L45.4139 33.261L45.6324 33.0285ZM45.6324 33.7542L45.4139 33.5216L45.4115 33.5239L45.6324 33.7542ZM45.1874 39.6591V34.7271H44.5491V39.6591H45.1874ZM44.8682 35.0462H45.626V34.4079H44.8682V35.0462ZM45.3069 34.7271V39.6591H45.9451V34.7271H45.3069ZM45.626 39.3399H44.8682V39.9782H45.626V39.3399ZM45.2536 33.5859C45.1866 33.5859 45.1375 33.5663 45.09 33.5216L44.6529 33.9867C44.8195 34.1433 45.0251 34.2242 45.2536 34.2242V33.5859ZM45.0924 33.5239C45.0482 33.4815 45.0332 33.4429 45.0332 33.3913H44.395C44.395 33.6223 44.4849 33.8256 44.6505 33.9845L45.0924 33.5239ZM45.0332 33.3913C45.0332 33.3398 45.0482 33.3012 45.0924 33.2588L44.6505 32.7982C44.4849 32.957 44.395 33.1603 44.395 33.3913H45.0332ZM45.09 33.261C45.1375 33.2164 45.1866 33.1967 45.2536 33.1967V32.5584C45.0251 32.5584 44.8195 32.6394 44.6529 32.796L45.09 33.261ZM45.2536 33.1967C45.3204 33.1967 45.3671 33.2162 45.4115 33.2588L45.8534 32.7982C45.688 32.6396 45.4821 32.5584 45.2536 32.5584V33.1967ZM45.4139 33.261C45.4596 33.304 45.4739 33.342 45.4739 33.3913H46.1121C46.1121 33.1581 46.0193 32.9542 45.851 32.796L45.4139 33.261ZM45.4739 33.3913C45.4739 33.4407 45.4596 33.4786 45.4139 33.5216L45.851 33.9867C46.0193 33.8285 46.1121 33.6245 46.1121 33.3913H45.4739ZM45.4115 33.5239C45.3671 33.5664 45.3204 33.5859 45.2536 33.5859V34.2242C45.4821 34.2242 45.688 34.1431 45.8534 33.9845L45.4115 33.5239ZM51.5442 34.7271L51.8435 34.8378C51.8797 34.7398 51.8657 34.6304 51.8061 34.5447C51.7464 34.459 51.6486 34.4079 51.5442 34.4079V34.7271ZM49.7204 39.6591V39.9782C49.8539 39.9782 49.9734 39.895 50.0197 39.7697L49.7204 39.6591ZM48.9497 39.6591L48.6504 39.7697C48.6968 39.895 48.8162 39.9782 48.9497 39.9782V39.6591ZM47.1259 34.7271V34.4079C47.0215 34.4079 46.9237 34.459 46.8641 34.5447C46.8044 34.6304 46.7904 34.7398 46.8266 34.8378L47.1259 34.7271ZM47.9479 34.7271L48.2495 34.6226C48.205 34.4941 48.0839 34.4079 47.9479 34.4079V34.7271ZM49.3094 38.6572L49.0078 38.7617C49.0523 38.8902 49.1734 38.9764 49.3094 38.9764V38.6572ZM49.3607 38.6572V38.9764C49.4967 38.9764 49.6178 38.8902 49.6623 38.7617L49.3607 38.6572ZM50.7222 34.7271V34.4079C50.5862 34.4079 50.4651 34.4941 50.4206 34.6226L50.7222 34.7271ZM51.2449 34.6164L49.4211 39.5484L50.0197 39.7697L51.8435 34.8378L51.2449 34.6164ZM49.7204 39.3399H48.9497V39.9782H49.7204V39.3399ZM49.2491 39.5484L47.4253 34.6164L46.8266 34.8378L48.6504 39.7697L49.2491 39.5484ZM47.1259 35.0462H47.9479V34.4079H47.1259V35.0462ZM47.6464 34.8315L49.0078 38.7617L49.6109 38.5528L48.2495 34.6226L47.6464 34.8315ZM49.3094 38.9764H49.3607V38.3381H49.3094V38.9764ZM49.6623 38.7617L51.0237 34.8315L50.4206 34.6226L49.0592 38.5528L49.6623 38.7617ZM50.7222 35.0462H51.5442V34.4079H50.7222V35.0462ZM53.7031 39.4471L53.5352 39.7185L53.5372 39.7197L53.7031 39.4471ZM52.91 38.5609L52.6227 38.6998L52.6236 38.7017L52.91 38.5609ZM52.91 35.8958L52.6224 35.7576L52.6221 35.7583L52.91 35.8958ZM53.6871 34.9904L53.8613 35.2577L53.8617 35.2575L53.6871 34.9904ZM55.6169 34.7913L55.7201 34.4893L55.7201 34.4893L55.6169 34.7913ZM56.3008 35.2087L56.0825 35.4415L56.0838 35.4427L56.3008 35.2087ZM56.7921 35.9665L57.0896 35.8511L57.0896 35.8511L56.7921 35.9665ZM56.9751 37.4499V37.7691C57.1513 37.7691 57.2942 37.6262 57.2942 37.4499H56.9751ZM53.1733 37.4499H52.8542C52.8542 37.6262 52.9971 37.7691 53.1733 37.7691V37.4499ZM53.1733 36.7949V36.4758C52.9971 36.4758 52.8542 36.6187 52.8542 36.7949H53.1733ZM56.2045 36.7949V37.114C56.3807 37.114 56.5236 36.9712 56.5236 36.7949H56.2045ZM56.0375 36.05L55.752 36.1927L55.7532 36.1949L56.0375 36.05ZM55.5687 35.533L55.399 35.8033L55.4003 35.8041L55.5687 35.533ZM54.0724 35.5683L54.2512 35.8327L54.2518 35.8323L54.0724 35.5683ZM53.5683 36.1463L53.2823 36.0046L53.2823 36.0046L53.5683 36.1463ZM53.5843 38.2944L53.2984 38.4362L53.2999 38.439L53.5843 38.2944ZM54.127 38.882L53.9662 39.1577L53.9681 39.1588L54.127 38.882ZM55.4724 38.9976L55.5769 39.2991L55.5792 39.2983L55.4724 38.9976ZM55.893 38.7407L56.1144 38.9705L56.1166 38.9685L55.893 38.7407ZM56.1659 38.3105L56.2522 38.0032C56.0926 37.9584 55.9253 38.0432 55.8671 38.1984L56.1659 38.3105ZM56.898 38.516L57.2028 38.6106C57.2283 38.5283 57.2195 38.4392 57.1784 38.3635C57.1372 38.2878 57.0672 38.232 56.9843 38.2087L56.898 38.516ZM56.5095 39.171L56.7378 39.394L56.739 39.3927L56.5095 39.171ZM55.8352 39.6077L55.9496 39.9056L55.9517 39.9048L55.8352 39.6077ZM54.9329 39.4427C54.5057 39.4427 54.1554 39.3488 53.8691 39.1745L53.5372 39.7197C53.9401 39.965 54.4097 40.0809 54.9329 40.0809V39.4427ZM53.8711 39.1758C53.5821 38.9969 53.3576 38.748 53.1964 38.4201L52.6236 38.7017C52.835 39.1317 53.1392 39.4735 53.5352 39.7185L53.8711 39.1758ZM53.1974 38.4221C53.0379 38.0919 52.953 37.6979 52.953 37.2316H52.3148C52.3148 37.7756 52.414 38.2678 52.6227 38.6998L53.1974 38.4221ZM52.953 37.2316C52.953 36.7654 53.0378 36.3686 53.198 36.0334L52.6221 35.7583C52.4141 36.1937 52.3148 36.6874 52.3148 37.2316H52.953ZM53.1977 36.0341C53.3609 35.6946 53.5826 35.4394 53.8613 35.2577L53.5129 34.723C53.128 34.9738 52.8317 35.3222 52.6224 35.7576L53.1977 36.0341ZM53.8617 35.2575C54.1378 35.0769 54.4652 34.982 54.8559 34.982V34.3437C54.356 34.3437 53.9042 34.4671 53.5124 34.7233L53.8617 35.2575ZM54.8559 34.982C55.0766 34.982 55.2954 35.0186 55.5136 35.0933L55.7201 34.4893C55.4374 34.3927 55.1489 34.3437 54.8559 34.3437V34.982ZM55.5136 35.0933C55.7185 35.1633 55.9079 35.2778 56.0825 35.4415L56.519 34.9759C56.2827 34.7543 56.0161 34.5905 55.7201 34.4893L55.5136 35.0933ZM56.0838 35.4427C56.2473 35.5943 56.3865 35.8032 56.4945 36.0819L57.0896 35.8511C56.9536 35.5004 56.7653 35.2042 56.5177 34.9747L56.0838 35.4427ZM56.4945 36.0819C56.5981 36.349 56.6559 36.6947 56.6559 37.1288H57.2942C57.2942 36.6426 57.23 36.2133 57.0896 35.8511L56.4945 36.0819ZM56.6559 37.1288V37.4499H57.2942V37.1288H56.6559ZM56.9751 37.1308H53.1733V37.7691H56.9751V37.1308ZM53.4925 37.4499V36.7949H52.8542V37.4499H53.4925ZM53.1733 37.114H56.2045V36.4758H53.1733V37.114ZM56.5236 36.7949C56.5236 36.4731 56.4589 36.174 56.3218 35.905L55.7532 36.1949C55.8387 36.3626 55.8853 36.5601 55.8853 36.7949H56.5236ZM56.3229 35.9073C56.1879 35.6372 55.9916 35.42 55.7371 35.2619L55.4003 35.8041C55.5525 35.8986 55.6687 36.026 55.7521 36.1927L56.3229 35.9073ZM55.7383 35.2627C55.4789 35.0999 55.1805 35.0244 54.8559 35.0244V35.6627C55.0792 35.6627 55.2561 35.7136 55.399 35.8033L55.7383 35.2627ZM54.8559 35.0244C54.4988 35.0244 54.1732 35.114 53.893 35.3044L54.2518 35.8323C54.4125 35.723 54.6093 35.6627 54.8559 35.6627V35.0244ZM53.8936 35.304C53.6292 35.4828 53.4244 35.7179 53.2823 36.0046L53.8542 36.288C53.9476 36.0995 54.0789 35.9492 54.2512 35.8327L53.8936 35.304ZM53.2823 36.0046C53.1422 36.2874 53.0726 36.5908 53.0726 36.9105H53.7108C53.7108 36.6865 53.7589 36.4804 53.8542 36.288L53.2823 36.0046ZM53.0726 36.9105V37.3472H53.7108V36.9105H53.0726ZM53.0726 37.3472C53.0726 37.7551 53.1428 38.1223 53.2984 38.4362L53.8702 38.1526C53.769 37.9485 53.7108 37.6842 53.7108 37.3472H53.0726ZM53.2999 38.439C53.456 38.7462 53.678 38.9895 53.9662 39.1577L54.2878 38.6064C54.1136 38.5048 53.9738 38.3564 53.8688 38.1498L53.2999 38.439ZM53.9681 39.1588C54.2544 39.3231 54.5795 39.4002 54.9329 39.4002V38.762C54.6742 38.762 54.4619 38.7063 54.2859 38.6052L53.9681 39.1588ZM54.9329 39.4002C55.1616 39.4002 55.3775 39.3682 55.5769 39.2991L55.3678 38.6961C55.2461 38.7383 55.1024 38.762 54.9329 38.762V39.4002ZM55.5792 39.2983C55.7823 39.2262 55.9622 39.1173 56.1144 38.9705L55.6716 38.5109C55.5884 38.5911 55.4878 38.6534 55.3655 38.6969L55.5792 39.2983ZM56.1166 38.9685C56.271 38.8169 56.386 38.6326 56.4647 38.4225L55.8671 38.1984C55.8175 38.3309 55.7505 38.4334 55.6694 38.513L56.1166 38.9685ZM56.0797 38.6177L56.8118 38.8232L56.9843 38.2087L56.2522 38.0032L56.0797 38.6177ZM56.5932 38.4214C56.5311 38.6217 56.4275 38.7965 56.28 38.9493L56.739 39.3927C56.9554 39.1687 57.1108 38.9069 57.2028 38.6106L56.5932 38.4214ZM56.2812 38.948C56.134 39.0987 55.9486 39.2205 55.7187 39.3106L55.9517 39.9048C56.2569 39.7851 56.5211 39.6158 56.7378 39.394L56.2812 38.948ZM55.7208 39.3098C55.4952 39.3964 55.2341 39.4427 54.9329 39.4427V40.0809C55.2996 40.0809 55.64 40.0245 55.9496 39.9056L55.7208 39.3098ZM58.6251 39.6591H58.306C58.306 39.8353 58.4489 39.9782 58.6251 39.9782V39.6591ZM58.6251 34.7271V34.4079C58.4489 34.4079 58.306 34.5508 58.306 34.7271H58.6251ZM59.3572 34.7271H59.6763C59.6763 34.5508 59.5335 34.4079 59.3572 34.4079V34.7271ZM59.3572 35.472H59.0381C59.0381 35.6483 59.181 35.7911 59.3572 35.7911V35.472ZM59.4086 35.472V35.7911C59.5423 35.7911 59.6618 35.7078 59.708 35.5823L59.4086 35.472ZM59.8966 34.878L59.7236 34.6099L59.7236 34.6099L59.8966 34.878ZM61.0911 34.6629H61.4102C61.4102 34.4989 61.286 34.3616 61.1229 34.3453L61.0911 34.6629ZM61.0911 35.4335L61.0137 35.7431C61.109 35.7669 61.21 35.7455 61.2875 35.685C61.365 35.6245 61.4102 35.5317 61.4102 35.4335H61.0911ZM60.9145 35.4046L60.862 35.7195L60.8704 35.7206L60.9145 35.4046ZM59.9865 35.533L60.1357 35.8151L60.1369 35.8145L59.9865 35.533ZM59.5434 35.944L59.2724 35.7755L59.2719 35.7764L59.5434 35.944ZM59.3829 39.6591V39.9782C59.5591 39.9782 59.702 39.8353 59.702 39.6591H59.3829ZM58.9442 39.6591V34.7271H58.306V39.6591H58.9442ZM58.6251 35.0462H59.3572V34.4079H58.6251V35.0462ZM59.0381 34.7271V35.472H59.6763V34.7271H59.0381ZM59.3572 35.7911H59.4086V35.1529H59.3572V35.7911ZM59.708 35.5823C59.7721 35.4084 59.8876 35.2637 60.0697 35.1461L59.7236 34.6099C59.4348 34.7963 59.2248 35.0476 59.1091 35.3617L59.708 35.5823ZM60.0697 35.1461C60.2507 35.0293 60.4555 34.9691 60.6929 34.9691V34.3309C60.3396 34.3309 60.0135 34.4227 59.7236 34.6099L60.0697 35.1461ZM60.6929 34.9691C60.7449 34.9691 60.8115 34.9701 60.8935 34.9722L60.9098 34.3342C60.8248 34.332 60.7523 34.3309 60.6929 34.3309V34.9691ZM60.8935 34.9722C60.9749 34.9743 61.0286 34.9773 61.0593 34.9804L61.1229 34.3453C61.068 34.3398 60.9953 34.3364 60.9098 34.3342L60.8935 34.9722ZM60.772 34.6629V35.4335H61.4102V34.6629H60.772ZM61.1685 35.1239C61.123 35.1125 61.0459 35.1007 60.9586 35.0885L60.8704 35.7206C60.9151 35.7269 60.9502 35.7321 60.9762 35.7364C61.0049 35.7411 61.0147 35.7433 61.0137 35.7431L61.1685 35.1239ZM60.967 35.0898C60.858 35.0716 60.7451 35.063 60.6287 35.063V35.7012C60.7135 35.7012 60.7911 35.7075 60.862 35.7194L60.967 35.0898ZM60.6287 35.063C60.3431 35.063 60.0763 35.1233 59.8362 35.2515L60.1369 35.8145C60.2736 35.7415 60.4349 35.7012 60.6287 35.7012V35.063ZM59.8374 35.2509C59.6022 35.3752 59.412 35.551 59.2724 35.7755L59.8144 36.1126C59.8932 35.986 59.9984 35.8877 60.1357 35.8151L59.8374 35.2509ZM59.2719 35.7764C59.1309 36.0048 59.0638 36.2619 59.0638 36.538H59.702C59.702 36.3689 59.7419 36.23 59.815 36.1116L59.2719 35.7764ZM59.0638 36.538V39.6591H59.702V36.538H59.0638ZM59.3829 39.3399H58.6251V39.9782H59.3829V39.3399Z" fill="#D6AB0A"/>
</svg>
